<?xml version="1.0" encoding="UTF-8" standalone="no"?>
<!-- Created with Inkscape (http://www.inkscape.org/) -->

<svg
   width="512"
   height="512"
   viewBox="0 0 135.46666 135.46667"
   version="1.1"
   id="svg1"
   xmlns="http://www.w3.org/2000/svg"
   xmlns:svg="http://www.w3.org/2000/svg">
  <defs
     id="defs1" />
  <g
     id="layer1">
    <rect
       style="fill:#1a1a1a;stroke-width:0"
       id="rect17"
       width="135.46666"
       height="135.46666"
       x="0"
       y="0" />
    <path
       d="m 85.04785,76.301493 c 2.991787,0 3.638661,-4.285534 3.71952,-24.823755 V 30.616081 l 4.123816,7.034745 c 2.264055,3.962098 4.851548,7.034745 5.740998,7.034745 3.476946,0 8.894506,-3.71952 11.158566,-7.762477 4.36639,-7.600759 4.85154,-8.571069 7.5199,-14.635503 1.3746,-3.072648 2.66834,-5.417563 3.15351,-5.417563 1.29374,0 1.77889,48.596341 2.99178,51.749847 0.64688,1.7789 2.58749,2.910929 4.20467,2.910929 1.13203,0 2.26406,-0.485155 2.26406,-2.506634 0,-4.204674 -2.10233,0.161718 -2.42578,-31.858498 -0.24257,-24.176883 -0.72773,-28.7049931 -3.07264,-30.8881906 -0.48515,-0.4851541 -1.13203,-0.6468733 -1.7789,-0.6468733 -2.10234,0 -4.60897,1.9406199 -6.06443,5.0132669 -7.68163,16.333545 -14.15035,27.330388 -16.01012,27.330388 -1.859756,0 -6.873022,-11.077702 -10.188247,-22.963995 -2.183197,-7.43904 -3.315225,-9.7839555 -4.68983,-9.7839555 -1.051169,0 -2.344916,0.6468732 -2.991788,1.5363242 -0.727733,0.8894509 -0.97031,8.8136453 -0.97031,26.0366413 0,37.437779 0.646873,43.502215 3.315225,43.502215 z"
       id="text1"
       style="fill:#5599ff;stroke:#5599ff;stroke-width:2.12255;stroke-dasharray:none;stroke-opacity:1"
       aria-label="M" />
    <g
       id="g21"
       transform="matrix(1.0417017,0,0,1.0417017,-16.963755,-0.16475744)">
      <path
         d="m 39.518345,-85.095807 q -0.314645,-1.022595 -0.314645,-1.730545 0,-0.786611 0.07866,-1.730544 0.07866,-0.943933 0.314645,-2.595816 0.314644,-1.651883 1.101255,-3.225105 0.786611,-1.651884 1.809205,-3.146444 1.022595,-1.494561 2.595817,-2.753139 1.651883,-1.25858 3.61841,-2.20251 4.169039,-2.04519 10.147283,-2.04519 12.035148,0 19.586614,8.023433 7.630127,7.944771 7.630127,20.373225 0,12.428455 -8.967366,20.68787 -8.967365,8.180755 -22.733058,8.180755 -13.765693,0 -22.890381,-8.180755 -9.046027,-8.180754 -9.046027,-21.238497 0,-8.416738 3.933055,-14.94561 3.933056,-6.528871 11.248538,-10.225941 l 0.471967,0.70795 q -5.112972,3.382425 -7.394144,9.753975 -2.202511,6.371549 -2.202511,13.529709 0,13.293726 7.236822,20.766531 7.236821,7.472805 18.56402,7.472805 11.327198,0 18.485359,-7.472805 7.236821,-7.551466 7.236821,-19.822598 0,-10.619248 -5.74226,-17.934731 -5.6636,-7.315486 -16.046865,-7.315486 -4.641005,0 -8.416738,1.65189 -6.843516,2.910457 -9.046027,9.596651 -0.629289,1.966528 -0.629289,3.382428 0,1.415899 0.157323,2.281171 z"
         id="text18"
         style="fill:#f6ffd5;stroke:#f6ffd5;stroke-width:0.529167;stroke-dasharray:none;stroke-opacity:1"
         transform="scale(0.82557158,-1.211282)"
         aria-label="O" />
      <g
         id="g19"
         transform="matrix(0.39713869,0,0,0.39713869,-2.5790967,37.080292)">
        <path
           style="fill:#f6ffd5;stroke-width:0"
           id="path19"
           d="m 85.971029,83.359716 c 0.560434,-0.116693 1.127595,-0.135144 1.690533,-0.163187 1.072252,-0.05675 2.133221,-0.0042 3.190098,0.06015 1.387606,0.101791 2.751066,0.308702 4.112766,0.512014 1.50223,0.199155 2.97528,0.483942 4.41754,0.854861 1.532234,0.392136 2.998794,0.917746 4.439184,1.489181 1.54322,0.617828 3.03765,1.312852 4.51621,2.031107 1.32225,0.650248 2.57046,1.400381 3.79447,2.176542 1.11752,0.697138 2.13976,1.495016 3.12396,2.329594 0.95473,0.832173 1.80882,1.749502 2.61068,2.702091 0.79144,0.966306 1.46376,2.007531 2.10935,3.061346 0.5998,0.984737 1.13579,2.002155 1.65774,3.025665 0.46614,0.91778 0.90332,1.8482 1.29891,2.79655 0.0791,0.35312 0.76781,1.83954 0.0443,0.10568 -0.0582,-0.1384 0.093,0.28543 0.13779,0.42872 0.14221,0.45258 0.11951,0.38555 0.24557,0.84106 0.23173,0.77418 0.34606,1.57769 0.43952,2.38382 0.10502,0.76632 0.13738,1.54193 0.1365,2.32207 0.009,0.83313 -0.088,1.6675 -0.22402,2.50271 -0.14522,0.86224 -0.34187,1.7201 -0.57931,2.57347 -0.22824,0.80389 -0.49553,1.60112 -0.76477,2.39799 -0.24947,0.75221 -0.58671,1.48126 -0.95295,2.20228 -0.34986,0.70923 -0.80807,1.37711 -1.2637,2.04216 -0.46364,0.6662 -0.97308,1.30906 -1.49949,1.94004 -0.47933,0.5775 -1.02323,1.1086 -1.57243,1.63483 -0.46976,0.45965 -0.99449,0.86948 -1.50397,1.29272 -0.41153,0.34451 -0.84732,0.6645 -1.27947,0.98749 0,0 0.4358,1.21287 0.4358,1.21287 v 0 c 0.43175,-0.32357 0.86772,-0.64357 1.2792,-0.98825 0.51008,-0.42335 1.0346,-0.83414 1.5029,-1.29567 0.54872,-0.52776 1.09151,-1.06101 1.57077,-1.63947 0.52552,-0.63185 1.03581,-1.27437 1.49912,-1.94107 0.45524,-0.66479 0.91488,-1.33183 1.26417,-2.04087 0.3657,-0.72202 0.70192,-1.45215 0.95197,-2.20499 0.26944,-0.79775 0.53542,-1.59614 0.76372,-2.40089 0.23701,-0.85361 0.43335,-1.71159 0.57913,-2.57398 0.13787,-0.83434 0.23227,-1.66792 0.2249,-2.50028 0.002,-0.77995 -0.031,-1.55516 -0.13618,-2.32116 -0.0934,-0.80782 -0.20921,-1.61273 -0.4412,-2.3885 -0.35435,-1.28014 -0.81653,-2.52474 -1.28679,-3.76547 -0.39489,-0.94614 -0.83131,-1.87436 -1.29655,-2.78999 -0.52141,-1.021618 -1.05657,-2.037298 -1.65577,-3.020145 -0.64573,-1.053564 -1.31837,-2.094386 -2.10919,-3.060918 -0.80123,-0.952396 -1.65564,-1.868657 -2.61007,-2.700381 -0.98292,-0.834693 -2.00451,-1.631943 -3.12296,-2.326823 -1.22397,-0.772164 -2.46875,-1.522487 -3.79133,-2.167803 -1.47898,-0.716167 -2.97386,-1.409134 -4.51521,-2.028323 -1.44018,-0.575915 -2.90715,-1.106382 -4.442214,-1.497603 -1.44211,-0.372171 -2.91524,-0.657484 -4.418,-0.856168 -1.36374,-0.206423 -2.72881,-0.418557 -4.117999,-0.526551 -1.058795,-0.06859 -2.121318,-0.123017 -3.195668,-0.07568 -0.565969,0.0212 -1.135033,0.0361 -1.700706,0.134876 z" />
        <circle
           style="fill:#f6ffd5;stroke-width:0"
           id="circle19"
           cx="111.1909"
           cy="119.78182"
           r="10.063636" />
      </g>
      <g
         id="g22"
         transform="matrix(0.39713869,0,0,0.39713869,10.675449,31.680293)">
        <path
           style="fill:#f6ffd5;stroke-width:0"
           id="path21"
           d="m 82.262684,83.977773 c 0.560434,-0.116693 1.127595,-0.135144 1.690533,-0.163187 1.072252,-0.05675 2.133221,-0.0042 3.190098,0.06015 1.387606,0.101791 2.751066,0.308702 4.112766,0.512014 1.50223,0.199155 2.97528,0.483942 4.41754,0.854861 1.532234,0.392136 2.998794,0.917746 4.439189,1.489181 1.54322,0.617828 3.03765,1.312852 4.51621,2.031107 1.32225,0.650248 2.57046,1.400381 3.79447,2.176542 1.11752,0.697138 2.13976,1.495016 3.12396,2.329594 0.95473,0.832173 1.80882,1.749502 2.61068,2.702091 0.79144,0.966306 1.46376,2.007531 2.10935,3.061346 0.5998,0.984738 1.13579,2.002158 1.65774,3.025668 0.46614,0.91778 0.90332,1.8482 1.29891,2.79655 0.0791,0.35312 0.76781,1.83954 0.0443,0.10568 -0.0582,-0.1384 0.093,0.28543 0.13779,0.42872 0.14221,0.45258 0.11951,0.38555 0.24557,0.84106 0.23173,0.77418 0.34606,1.57769 0.43952,2.38382 0.10502,0.76632 0.13738,1.54193 0.1365,2.32207 0.009,0.83313 -0.088,1.6675 -0.22402,2.50271 -0.14522,0.86224 -0.34187,1.7201 -0.57931,2.57347 -0.22824,0.80389 -0.49553,1.60112 -0.76477,2.39799 -0.24947,0.75221 -0.58671,1.48126 -0.95295,2.20228 -0.34986,0.70923 -0.80807,1.37711 -1.2637,2.04216 -0.46364,0.6662 -0.97308,1.30906 -1.49949,1.94004 -0.47933,0.5775 -1.02323,1.1086 -1.57243,1.63483 -0.46976,0.45965 -0.99449,0.86948 -1.50397,1.29272 -0.41153,0.34451 -0.84732,0.6645 -1.27947,0.98749 0,0 0.4358,1.21287 0.4358,1.21287 v 0 c 0.43175,-0.32357 0.86772,-0.64357 1.2792,-0.98825 0.51008,-0.42335 1.0346,-0.83414 1.5029,-1.29567 0.54872,-0.52776 1.09151,-1.06101 1.57077,-1.63947 0.52552,-0.63185 1.03581,-1.27437 1.49912,-1.94107 0.45524,-0.66479 0.91488,-1.33183 1.26417,-2.04087 0.3657,-0.72202 0.70192,-1.45215 0.95197,-2.20499 0.26944,-0.79775 0.53542,-1.59614 0.76372,-2.40089 0.23701,-0.85361 0.43335,-1.71159 0.57913,-2.57398 0.13787,-0.83434 0.23227,-1.66792 0.2249,-2.50028 0.002,-0.77995 -0.031,-1.55516 -0.13618,-2.32116 -0.0934,-0.80782 -0.20921,-1.61273 -0.4412,-2.3885 -0.35435,-1.28014 -0.81653,-2.52474 -1.28679,-3.76547 -0.39489,-0.94614 -0.83131,-1.87436 -1.29655,-2.78999 -0.52141,-1.021621 -1.05657,-2.037301 -1.65577,-3.020148 -0.64573,-1.053564 -1.31837,-2.094386 -2.10919,-3.060918 -0.80123,-0.952396 -1.65564,-1.868657 -2.61007,-2.700381 -0.98292,-0.834693 -2.00451,-1.631943 -3.12296,-2.326823 -1.22397,-0.772164 -2.46875,-1.522487 -3.79133,-2.167803 -1.47898,-0.716167 -2.97386,-1.409134 -4.515215,-2.028323 -1.44018,-0.575915 -2.90715,-1.106382 -4.442214,-1.497603 -1.44211,-0.372171 -2.91524,-0.657484 -4.418,-0.856168 -1.36374,-0.206423 -2.72881,-0.418557 -4.117999,-0.526551 -1.058795,-0.06859 -2.121318,-0.123017 -3.195668,-0.07568 -0.565969,0.0212 -1.135033,0.0361 -1.700706,0.134876 z" />
        <circle
           style="fill:#f6ffd5;stroke-width:0"
           id="circle21"
           cx="107.48256"
           cy="120.39988"
           r="10.063636" />
      </g>
    </g>
  </g>
</svg>
