<?xml version="1.0" encoding="UTF-8" standalone="no"?>
<!-- Created with Inkscape (http://www.inkscape.org/) -->

<svg
   width="512"
   height="512"
   viewBox="0 0 135.5 135.5"
   version="1.1"
   id="svg1"
   xmlns="http://www.w3.org/2000/svg"
   xmlns:svg="http://www.w3.org/2000/svg">
  <defs
     id="defs1" />
  <g
     id="layer1">
    <rect
       style="fill:#1a1a1a;stroke-width:0"
       id="rect17"
       width="135.5"
       height="135.5"
       x="0"
       y="0" />
    <path
       d="m 33.483115,126.30521 c 4.930969,0 5.997118,-7.06329 6.130389,-40.913681 v -34.3835 l 6.796727,11.594433 c 3.731549,6.530199 7.996164,11.594434 9.462126,11.594434 5.730594,0 14.659637,-6.130389 18.391185,-12.793858 7.196539,-12.527318 7.996147,-14.126551 12.394049,-24.12175 2.26557,-5.064236 4.39787,-8.929047 5.19751,-8.929047 2.1323,0 2.93191,80.094879 4.93096,85.292389 1.06616,2.93192 4.264609,4.7977 6.929999,4.7977 1.86576,0 3.73154,-0.79963 3.73154,-4.13136 0,-6.93 -3.46499,0.26653 -3.99809,-52.508123 -0.39979,-39.847535 -1.19942,-47.310617 -5.064219,-50.908889 -0.79961,-0.799616 -1.86578,-1.066157 -2.93193,-1.066157 -3.465,0 -7.59635,3.198466 -9.99519,8.262701 C 72.797564,45.010909 62.136034,63.13554 59.070823,63.13554 c -3.065195,0 -11.327884,-18.257901 -16.791936,-37.848494 -3.598278,-12.260779 -5.464036,-16.12559 -7.729622,-16.12559 -1.732503,0 -3.864803,1.066155 -4.93097,2.532118 -1.199419,1.465964 -1.599232,14.526357 -1.599232,42.912728 0,61.703698 1.066166,71.698908 5.464052,71.698908 z"
       id="text1"
       style="fill:#aaccff;stroke:#aaccff;stroke-width:1.91874;stroke-dasharray:none;stroke-opacity:1"
       aria-label="M" />
  </g>
</svg>
